<svg width="256" height="256" viewBox="0 0 256 256" fill="none" xmlns="http://www.w3.org/2000/svg">
  <defs>
    <linearGradient id="wr-bg" x1="36" y1="24" x2="228" y2="236" gradientUnits="userSpaceOnUse">
      <stop stop-color="#071327" />
      <stop offset="1" stop-color="#0D1C33" />
    </linearGradient>
    <linearGradient id="wr-wave" x1="56" y1="104" x2="204" y2="160" gradientUnits="userSpaceOnUse">
      <stop stop-color="#5FD7FF" />
      <stop offset="1" stop-color="#56E8BD" />
    </linearGradient>
  </defs>

  <rect x="16" y="16" width="224" height="224" rx="56" fill="url(#wr-bg)" />
  <rect x="16" y="16" width="224" height="224" rx="56" stroke="#456691" stroke-width="4" />

  <path
    d="M52 152C68 136 82 127 96 127C115 127 123 144 139 144C151 144 163 136 181 116L202 116C181 148 160 164 137 164C117 164 108 147 95 147C86 147 74 153 62 164L52 164V152Z"
    fill="url(#wr-wave)"
  />

  <path d="M78 88H102L128 138L154 88H178L140 172H116L78 88Z" fill="#F4F7FF" />
</svg>
